<?xml version="1.0" standalone="no"?>
<!DOCTYPE svg PUBLIC "-//W3C//DTD SVG 20010904//EN"
 "http://www.w3.org/TR/2001/REC-SVG-20010904/DTD/svg10.dtd">
<svg version="1.0" xmlns="http://www.w3.org/2000/svg"
 width="423.000000pt" height="423.000000pt" viewBox="0 0 423.000000 423.000000"
 preserveAspectRatio="xMidYMid meet">
<metadata>
Created by potrace 1.11, written by Peter Selinger 2001-2013
</metadata>
<g transform="translate(0.000000,423.000000) scale(0.100000,-0.100000)"
fill="#000000" stroke="none">
<path d="M3334 3551 c-17 -11 -45 -40 -62 -65 -27 -39 -33 -63 -46 -161 -9
-63 -22 -127 -30 -143 -17 -33 -23 -66 -41 -227 -4 -33 -14 -70 -21 -83 -8
-12 -19 -48 -25 -80 -6 -31 -17 -62 -24 -68 -8 -6 -16 -23 -19 -38 -3 -16 -12
-36 -20 -45 -8 -9 -17 -34 -20 -56 -13 -85 -19 -105 -32 -116 -8 -6 -14 -17
-14 -23 -2 -35 -211 -145 -279 -146 -24 0 -78 -15 -116 -32 -11 -4 -31 -10
-44 -13 -12 -2 -29 -9 -35 -15 -7 -5 -16 -7 -19 -4 -4 4 -18 -1 -31 -10 -14
-9 -34 -16 -44 -16 -24 0 -38 -16 -47 -52 -12 -45 -32 -42 -30 5 1 23 -3 48
-9 56 -6 7 -12 41 -13 75 -2 33 -5 90 -6 126 -2 36 0 101 4 145 18 173 21 263
10 269 -6 4 -11 17 -11 30 0 45 -81 87 -117 60 -10 -7 -30 -14 -45 -14 -18 0
-32 -8 -40 -22 -20 -39 -36 -148 -32 -227 2 -42 3 -110 3 -153 0 -42 5 -79 11
-83 16 -10 12 -43 -9 -64 -22 -22 -18 -63 12 -103 16 -22 19 -39 16 -95 -2
-37 -3 -102 -2 -143 1 -41 2 -112 3 -157 0 -45 5 -85 10 -88 6 -3 10 -37 10
-75 0 -38 5 -72 10 -75 14 -9 12 -50 -4 -89 -17 -40 -69 -59 -89 -33 -7 8 -28
20 -48 26 -20 6 -49 25 -65 42 -33 35 -103 84 -132 93 -11 4 -23 13 -26 21 -3
8 -14 15 -24 15 -10 0 -27 9 -37 20 -10 11 -26 20 -35 20 -10 0 -20 6 -23 14
-3 7 -27 16 -53 20 -26 3 -55 13 -63 20 -9 8 -32 18 -51 21 -19 3 -43 13 -52
22 -17 15 -34 20 -80 22 -9 1 -23 8 -32 16 -8 8 -37 19 -63 25 -26 5 -61 15
-78 23 -76 38 -305 48 -745 33 -69 -2 -145 -4 -168 -4 -24 -1 -49 -5 -55 -10
-7 -5 -23 -12 -37 -15 -41 -10 -107 -65 -125 -105 -10 -20 -24 -45 -32 -54
-21 -24 -25 -86 -7 -114 9 -13 13 -27 10 -32 -3 -6 1 -15 9 -22 8 -7 15 -21
15 -30 0 -10 11 -31 24 -47 12 -15 31 -44 40 -64 19 -40 132 -161 184 -197 18
-13 43 -24 55 -25 12 -1 33 -10 47 -19 14 -10 42 -20 63 -22 20 -3 46 -12 59
-20 13 -8 58 -20 101 -27 42 -6 77 -15 77 -20 0 -20 65 -25 112 -10 53 18 59
26 26 37 -12 3 -28 13 -35 20 -8 7 -30 16 -49 20 -20 4 -38 13 -41 20 -3 8
-11 14 -18 14 -7 0 -32 15 -54 34 -23 19 -54 37 -70 41 -16 3 -35 13 -42 21
-6 8 -20 14 -30 14 -11 0 -19 4 -19 10 0 5 -13 16 -30 25 -16 8 -49 35 -73 60
-25 25 -50 45 -57 45 -17 0 -35 21 -57 66 -21 42 -17 99 9 115 7 5 13 14 13
20 0 7 11 20 25 30 26 19 80 27 245 34 50 2 97 4 105 6 54 8 434 -37 474 -57
15 -7 44 -16 65 -20 20 -4 52 -15 71 -25 19 -11 44 -19 55 -19 11 0 36 -9 56
-19 20 -11 53 -22 74 -25 22 -4 46 -13 55 -21 9 -8 22 -15 28 -15 6 0 17 -6
24 -13 15 -15 59 -40 101 -58 15 -6 27 -15 27 -20 0 -5 16 -15 35 -23 19 -8
38 -22 41 -31 4 -9 19 -22 34 -30 15 -8 56 -42 92 -77 36 -35 79 -73 95 -85
17 -12 38 -39 48 -60 10 -21 34 -58 54 -82 35 -43 73 -102 108 -171 10 -19 21
-36 26 -38 4 -2 7 -13 7 -25 0 -25 44 -79 77 -96 27 -14 73 -14 73 -1 0 5 19
9 42 8 32 -1 44 3 52 17 6 11 26 33 44 49 17 16 32 35 32 41 0 6 9 18 20 28
11 9 20 27 20 40 0 12 9 30 20 40 11 9 20 23 20 31 0 8 7 19 15 24 21 11 28
52 10 59 -8 3 -15 16 -15 30 0 13 -7 31 -16 40 -62 63 -238 372 -250 443 -4
19 -10 40 -14 45 -4 6 -11 28 -15 50 -6 38 -6 39 12 24 20 -19 93 -45 108 -40
6 2 33 5 60 7 87 6 150 16 160 25 15 15 43 10 49 -8 6 -18 3 -70 -10 -188 -4
-33 -5 -87 -4 -120 9 -194 -8 -393 -37 -426 -20 -23 -23 -70 -7 -94 8 -11 14
-31 14 -46 0 -24 19 -55 60 -101 24 -26 84 -48 115 -42 72 13 114 83 101 166
-4 24 -8 54 -8 68 -2 30 11 218 16 246 2 10 7 51 10 89 18 178 34 278 46 285
5 3 14 27 20 54 6 26 17 55 25 63 8 8 15 21 15 29 0 7 10 16 23 19 63 15 116
20 148 15 19 -4 53 -5 75 -3 44 4 262 12 339 12 28 0 60 -7 73 -15 12 -8 48
-19 80 -25 31 -6 66 -16 77 -23 30 -19 142 -37 169 -26 57 21 147 166 149 237
1 77 -49 105 -180 103 -126 -3 -173 -3 -266 2 -48 3 -90 2 -92 -2 -5 -7 -35
-7 -193 4 -29 2 -55 -1 -58 -6 -4 -6 -48 -7 -111 -3 -74 5 -107 4 -112 -4 -13
-20 -42 13 -48 53 -6 48 3 86 22 86 8 0 15 9 15 20 0 20 39 52 68 55 10 1 28
7 41 12 14 5 50 8 80 5 114 -10 283 0 289 17 2 7 14 23 27 37 18 19 21 31 16
57 -8 40 -51 63 -136 72 -33 4 -71 8 -85 10 -14 2 -50 7 -80 10 -123 14 -150
31 -150 94 0 20 7 34 20 41 13 7 20 21 20 39 0 16 6 34 14 40 8 7 18 31 21 54
4 23 9 50 11 60 2 10 6 48 9 85 3 37 14 85 25 107 10 22 21 60 25 85 4 25 13
52 20 60 8 8 20 54 29 102 8 48 22 98 31 112 13 19 15 37 11 68 -4 24 -9 67
-12 96 -5 43 -10 55 -29 62 -12 5 -31 19 -42 33 -27 35 -53 40 -89 18z m-467
-1462 c-14 -30 -28 -70 -32 -89 -19 -92 -46 -104 -248 -107 l-158 -2 27 49
c27 50 53 72 156 129 78 42 272 104 276 86 2 -7 -8 -37 -21 -66z"/>
</g>
</svg>
